{"title":"The.Twilight.Saga.Breaking.Dawn-Part II.Crepusculo.Amanhecer.Par","uid":8214529,"size":6256706333,"categoryP":"video","categoryS":"movies","magnet":"?xt=urn:btih:a7251b1e2b718f089ccf79fff02f236531be2187&amp;dn=The.Twilight.Saga.Breaking.Dawn-Part+II.Crepusculo.Amanhecer.Par&amp;tr=udp%3A%2F%2Ftracker.openbittorrent.com%3A80&amp;tr=udp%3A%2F%2Fopen.demonii.com%3A1337&amp;tr=udp%3A%2F%2Ftracker.coppersurfer.tk%3A6969&amp;tr=udp%3A%2F%2Fexodus.desync.com%3A6969","seeders":1,"leechers":0,"uploader":null,"files":2,"time":1362271677,"description":"A.Saga.Crepusculo.Amanhecer.Parte.2.2013.720p.DUAL-ANGELiC\n\n\n\nFormat                                   : Matroska\nFormat version                           : Version 2\nFile size                                : 5.83 GiB\nDuration                                 : 1h 55mn\nOverall bit rate                         : 7 241 Kbps\nEncoded date                             : UTC 2013-03-02 19:30:53\nWriting application                      : mkvmerge v5.0.1 ('Es ist Sommer') built on Oct 13 2011 12:47:36\nWriting library                          : libebml v1.2.2 + libmatroska v1.3.0\n\nVideo\nID                                       : 1\nFormat                                   : AVC\nFormat/Info                              : Advanced Video Codec\nFormat profile                           : &lt;a class=&quot;__cf_email__&quot; href=&quot;/cdn-cgi/l/email-protection&quot; data-cfemail=&quot;fcb4959b94bcb0c8d2cd&quot;&gt;[email&amp;#160;protected]&lt;/a&gt;&lt;script cf-hash='f9e31' type=&quot;text/javascript&quot;&gt;\n/* &lt;![CDATA[ */!function(){try{var t=&quot;currentScript&quot;in document?document.currentScript:function(){for(var t=document.getElementsByTagName(&quot;script&quot;),e=t.length;e--;)if(t[e].getAttribute(&quot;cf-hash&quot;))return t[e]}();if(t&amp;&amp;t.previousSibling){var e,r,n,i,c=t.previousSibling,a=c.getAttribute(&quot;data-cfemail&quot;);if(a){for(e=&quot;&quot;,r=parseInt(a.substr(0,2),16),n=2;a.length-n;n+=2)i=parseInt(a.substr(n,2),16)^r,e+=String.fromCharCode(i);e=document.createTextNode(e),c.parentNode.replaceChild(e,c)}}}catch(u){}}();/* ]]&gt; */&lt;/script&gt;\nFormat settings, CABAC                   : Yes\nFormat settings, ReFrames                : 5 frames\nCodec ID                                 : V_MPEG4/ISO/AVC\nDuration                                 : 1h 55mn\nBit rate                                 : 5 282 Kbps\nWidth                                    : 1 280 pixels\nHeight                                   : 536 pixels\nDisplay aspect ratio                     : 2.40:1\nFrame rate mode                          : Constant\nFrame rate                               : 23.976 fps\nColor space                              : YUV\nChroma subsampling                       : 4:2:0\nBit depth                                : 8 bits\nScan type                                : Progressive\nBits/(Pixel*Frame)                       : 0.321\nStream size                              : 4.14 GiB (71%)\nWriting library                          : x264 core 129 r2245 bc13772\nEncoding settings                        : cabac=1 / ref=5 / deblock=1:0:0 / analyse=0x3:0x133 / me=umh / subme=7 / psy=1 / psy_rd=1.00:0.00 / mixed_ref=1 / me_range=16 / chroma_me=1 / trellis=1 / 8x8dct=1 / cqm=0 / deadzone=21,11 / fast_pskip=0 / chroma_qp_offset=-2 / threads=36 / lookahead_threads=6 / sliced_threads=0 / nr=0 / decimate=1 / interlaced=0 / bluray_compat=0 / constrained_intra=0 / bframes=3 / b_pyramid=2 / b_adapt=1 / b_bias=0 / direct=1 / weightb=1 / open_gop=0 / weightp=2 / keyint=250 / keyint_min=23 / scenecut=40 / intra_refresh=0 / rc_lookahead=40 / rc=2pass / mbtree=1 / bitrate=5282 / ratetol=1.0 / qcomp=0.60 / qpmin=0 / qpmax=69 / qpstep=4 / cplxblur=20.0 / qblur=0.5 / ip_ratio=1.40 / aq=1:1.00\nLanguage                                 : English\nDefault                                  : Yes\nForced                                   : Yes\n\nAudio #1\nID                                       : 2\nFormat                                   : AC-3\nFormat/Info                              : Audio Coding 3\nMode extension                           : CM (complete main)\nFormat settings, Endianness              : Big\nCodec ID                                 : A_AC3\nDuration                                 : 1h 55mn\nBit rate mode                            : Constant\nBit rate                                 : 448 Kbps\nChannel(s)                               : 6 channels\nChannel positions                        : Front: L C R, Side: L R, LFE\nSampling rate                            : 48.0 KHz\nBit depth                                : 16 bits\nCompression mode                         : Lossy\nDelay relative to video                  : 1s 800ms\nStream size                              : 369 MiB (6%)\nLanguage                                 : Portuguese\nDefault                                  : Yes\nForced                                   : Yes\n\nAudio #2\nID                                       : 3\nFormat                                   : DTS\nFormat/Info                              : Digital Theater Systems\nMode                                     : 16\nFormat settings, Endianness              : Big\nCodec ID                                 : A_DTS\nDuration                                 : 1h 55mn\nBit rate mode                            : Constant\nBit rate                                 : 1 509 Kbps\nChannel(s)                               : 6 channels\nChannel positions                        : Front: L C R, Side: L R, LFE\nSampling rate                            : 48.0 KHz\nBit depth                                : 24 bits\nCompression mode                         : Lossy\nStream size                              : 1.21 GiB (21%)\nLanguage                                 : English\nDefault                                  : No\nForced                                   : No\n\nMenu\n00:00:00.000                             : en:00:00:00.000\n00:08:04.067                             : en:00:08:04.067\n00:13:35.398                             : en:00:13:35.398\n00:18:36.073                             : en:00:18:36.073\n00:22:11.080                             : en:00:22:11.080\n00:30:03.343                             : en:00:30:03.343\n00:38:06.159                             : en:00:38:06.159\n00:44:23.619                             : en:00:44:23.619\n00:48:35.830                             : en:00:48:35.830\n00:52:31.440                             : en:00:52:31.440\n00:58:11.947                             : en:00:58:11.947\n01:02:10.352                             : en:01:02:10.352\n01:08:26.060                             : en:01:08:26.060\n01:11:38.503                             : en:01:11:38.503\n01:20:35.456                             : en:01:20:35.456\n01:24:57.509                             : en:01:24:57.509\n01:32:17.157                             : en:01:32:17.157\n01:38:08.966                             : en:01:38:08.966\n\n","torrent":{"xt":"urn:btih:a7251b1e2b718f089ccf79fff02f236531be2187","amp;dn":"The.Twilight.Saga.Breaking.Dawn-Part+II.Crepusculo.Amanhecer.Par","amp;tr":["udp%3A%2F%2Ftracker.openbittorrent.com%3A80","udp%3A%2F%2Fopen.demonii.com%3A1337","udp%3A%2F%2Ftracker.coppersurfer.tk%3A6969","udp%3A%2F%2Fexodus.desync.com%3A6969"],"infoHash":"a7251b1e2b718f089ccf79fff02f236531be2187","infoHashBuffer":{"type":"Buffer","data":[167,37,27,30,43,113,143,8,156,207,121,255,240,47,35,101,49,190,33,135]},"announce":[],"urlList":[]}}